<?xml version="1.0" encoding="utf-8"?>
<!-- Generator: Adobe Illustrator 22.0.1, SVG Export Plug-In . SVG Version: 6.00 Build 0)  -->
<svg version="1.1" id="Capa_1" xmlns="http://www.w3.org/2000/svg" xmlns:xlink="http://www.w3.org/1999/xlink" x="0px" y="0px"
	 viewBox="0 0 33.1 33.1" style="enable-background:new 0 0 33.1 33.1;" xml:space="preserve">
<style type="text/css">
	.st0{fill:#28A2B8;}
</style>
<g>
	<path class="st0" d="M16.5,0C7.4,0,0,7.4,0,16.5c0,9.2,7.4,16.6,16.6,16.6c9.1,0,16.6-7.4,16.5-16.6C33.1,7.4,25.7,0,16.5,0z
		 M23.1,26.5l-2.5-6.9h-8.4l-2.5,6.9h-2l6.6-18c0.3-0.6,0.5-1.2,0.6-1.9c0-1.4-1.3-1.4-2.6-1.6V4.3h6.2l8,22.2H23.1z"/>
	<polygon class="st0" points="12.8,18.1 20.1,18.1 16.4,8.4 	"/>
</g>
</svg>
